# xmcd CD database file
# Copyright (C) 1993-1998 Ti Kan
#
# Track frame offsets:
#	150
#	19858
#	26081
#	39410
#	48594
#	66036
#	81161
#	97929
#	117878
#	136069
#	149548
#	158426
#	179421
#	194585
#	201550
#	211140
#	224371
#	238498
#	254399
#
# Disc length: 3626 seconds
#
# Revision: 1
# Processed by: cddbd v1.4b41PL1 Copyright (c) Steve Scherf et al.
# Submitted via: NotifyCDPlayer(CDDB) 1.51.3
#
DISCID=1a0e2813
DTITLE=Klaus Brandl Band - Mississippi On My Mind
DYEAR=1900
DGENRE=
TTITLE0=Alligator Shoes
TTITLE1=Intro
TTITLE2=Unplugged Love
TTITLE3=Mississippi On My Mind
TTITLE4=Redwine Before Sunset
TTITLE5=If Trouble Was Money
TTITLE6=Low Budget
TTITLE7=The Big Dream
TTITLE8=Coming Home
TTITLE9=Too Long On The Vine
TTITLE10=Southern Jumboree
TTITLE11=Jumpin' At Shadows
TTITLE12=Jealous Blues
TTITLE13=You Are The One
TTITLE14=High Society
TTITLE15=Come Back Back
TTITLE16=Join The Boys
TTITLE17=Drown In The Blues
TTITLE18=Rainbow's End
EXTD=
EXTT0=
EXTT1=
EXTT2=
EXTT3=
EXTT4=
EXTT5=
EXTT6=
EXTT7=
EXTT8=
EXTT9=
EXTT10=
EXTT11=
EXTT12=
EXTT13=
EXTT14=
EXTT15=
EXTT16=
EXTT17=
EXTT18=
PLAYORDER=
